<?xml version="1.0" standalone="no"?>
<!DOCTYPE svg PUBLIC "-//W3C//DTD SVG 20010904//EN"
 "http://www.w3.org/TR/2001/REC-SVG-20010904/DTD/svg10.dtd">
<svg version="1.0" xmlns="http://www.w3.org/2000/svg"
 width="143.000000pt" height="145.000000pt" viewBox="0 0 143.000000 145.000000"
 preserveAspectRatio="xMidYMid meet">

<g transform="translate(0.000000,145.000000) scale(0.100000,-0.100000)"
fill="#000000" stroke="none">
<path d="M230 1381 c-91 -29 -174 -104 -206 -187 -18 -46 -19 -80 -19 -499 0
-349 3 -458 13 -488 24 -68 85 -132 159 -169 l68 -33 470 0 470 0 56 26 c71
33 125 87 158 158 l26 56 0 445 c0 403 -2 450 -18 497 -23 66 -80 131 -148
168 l-54 30 -475 2 c-261 1 -486 -2 -500 -6z m977 -118 c50 -27 87 -73 102
-128 15 -54 15 -825 0 -878 -6 -21 -26 -56 -45 -77 -65 -71 -63 -71 -570 -68
l-451 3 -41 29 c-26 18 -51 47 -67 79 l-25 51 0 425 c0 478 1 478 74 537 64
52 77 53 546 51 430 -2 436 -2 477 -24z"/>
</g>
</svg>
